%TF.GenerationSoftware,KiCad,Pcbnew,10.0.0*%
%TF.CreationDate,2026-04-10T19:54:07-04:00*%
%TF.ProjectId,SiPM_Breakout,5369504d-5f42-4726-9561-6b6f75742e6b,rev?*%
%TF.SameCoordinates,Original*%
%TF.FileFunction,Legend,Bot*%
%TF.FilePolarity,Positive*%
%FSLAX46Y46*%
G04 Gerber Fmt 4.6, Leading zero omitted, Abs format (unit mm)*
G04 Created by KiCad (PCBNEW 10.0.0) date 2026-04-10 19:54:07*
%MOMM*%
%LPD*%
G01*
G04 APERTURE LIST*
%ADD10C,0.150000*%
G04 APERTURE END LIST*
D10*
X151306077Y-96844875D02*
X150734649Y-96844875D01*
X151020363Y-97844875D02*
X151020363Y-96844875D01*
X150496553Y-97178208D02*
X150258458Y-97844875D01*
X150020363Y-97178208D02*
X150258458Y-97844875D01*
X150258458Y-97844875D02*
X150353696Y-98082970D01*
X150353696Y-98082970D02*
X150401315Y-98130589D01*
X150401315Y-98130589D02*
X150496553Y-98178208D01*
X149496553Y-97844875D02*
X149591791Y-97797256D01*
X149591791Y-97797256D02*
X149639410Y-97702017D01*
X149639410Y-97702017D02*
X149639410Y-96844875D01*
X148734648Y-97797256D02*
X148829886Y-97844875D01*
X148829886Y-97844875D02*
X149020362Y-97844875D01*
X149020362Y-97844875D02*
X149115600Y-97797256D01*
X149115600Y-97797256D02*
X149163219Y-97702017D01*
X149163219Y-97702017D02*
X149163219Y-97321065D01*
X149163219Y-97321065D02*
X149115600Y-97225827D01*
X149115600Y-97225827D02*
X149020362Y-97178208D01*
X149020362Y-97178208D02*
X148829886Y-97178208D01*
X148829886Y-97178208D02*
X148734648Y-97225827D01*
X148734648Y-97225827D02*
X148687029Y-97321065D01*
X148687029Y-97321065D02*
X148687029Y-97416303D01*
X148687029Y-97416303D02*
X149163219Y-97511541D01*
X148258457Y-97844875D02*
X148258457Y-97178208D01*
X148258457Y-97368684D02*
X148210838Y-97273446D01*
X148210838Y-97273446D02*
X148163219Y-97225827D01*
X148163219Y-97225827D02*
X148067981Y-97178208D01*
X148067981Y-97178208D02*
X147972743Y-97178208D01*
X146306076Y-97844875D02*
X146639409Y-97368684D01*
X146877504Y-97844875D02*
X146877504Y-96844875D01*
X146877504Y-96844875D02*
X146496552Y-96844875D01*
X146496552Y-96844875D02*
X146401314Y-96892494D01*
X146401314Y-96892494D02*
X146353695Y-96940113D01*
X146353695Y-96940113D02*
X146306076Y-97035351D01*
X146306076Y-97035351D02*
X146306076Y-97178208D01*
X146306076Y-97178208D02*
X146353695Y-97273446D01*
X146353695Y-97273446D02*
X146401314Y-97321065D01*
X146401314Y-97321065D02*
X146496552Y-97368684D01*
X146496552Y-97368684D02*
X146877504Y-97368684D01*
X145734647Y-97844875D02*
X145829885Y-97797256D01*
X145829885Y-97797256D02*
X145877504Y-97749636D01*
X145877504Y-97749636D02*
X145925123Y-97654398D01*
X145925123Y-97654398D02*
X145925123Y-97368684D01*
X145925123Y-97368684D02*
X145877504Y-97273446D01*
X145877504Y-97273446D02*
X145829885Y-97225827D01*
X145829885Y-97225827D02*
X145734647Y-97178208D01*
X145734647Y-97178208D02*
X145591790Y-97178208D01*
X145591790Y-97178208D02*
X145496552Y-97225827D01*
X145496552Y-97225827D02*
X145448933Y-97273446D01*
X145448933Y-97273446D02*
X145401314Y-97368684D01*
X145401314Y-97368684D02*
X145401314Y-97654398D01*
X145401314Y-97654398D02*
X145448933Y-97749636D01*
X145448933Y-97749636D02*
X145496552Y-97797256D01*
X145496552Y-97797256D02*
X145591790Y-97844875D01*
X145591790Y-97844875D02*
X145734647Y-97844875D01*
X144544171Y-97797256D02*
X144639409Y-97844875D01*
X144639409Y-97844875D02*
X144829885Y-97844875D01*
X144829885Y-97844875D02*
X144925123Y-97797256D01*
X144925123Y-97797256D02*
X144972742Y-97749636D01*
X144972742Y-97749636D02*
X145020361Y-97654398D01*
X145020361Y-97654398D02*
X145020361Y-97368684D01*
X145020361Y-97368684D02*
X144972742Y-97273446D01*
X144972742Y-97273446D02*
X144925123Y-97225827D01*
X144925123Y-97225827D02*
X144829885Y-97178208D01*
X144829885Y-97178208D02*
X144639409Y-97178208D01*
X144639409Y-97178208D02*
X144544171Y-97225827D01*
X144115599Y-97844875D02*
X144115599Y-96844875D01*
X143687028Y-97844875D02*
X143687028Y-97321065D01*
X143687028Y-97321065D02*
X143734647Y-97225827D01*
X143734647Y-97225827D02*
X143829885Y-97178208D01*
X143829885Y-97178208D02*
X143972742Y-97178208D01*
X143972742Y-97178208D02*
X144067980Y-97225827D01*
X144067980Y-97225827D02*
X144115599Y-97273446D01*
X142829885Y-97797256D02*
X142925123Y-97844875D01*
X142925123Y-97844875D02*
X143115599Y-97844875D01*
X143115599Y-97844875D02*
X143210837Y-97797256D01*
X143210837Y-97797256D02*
X143258456Y-97702017D01*
X143258456Y-97702017D02*
X143258456Y-97321065D01*
X143258456Y-97321065D02*
X143210837Y-97225827D01*
X143210837Y-97225827D02*
X143115599Y-97178208D01*
X143115599Y-97178208D02*
X142925123Y-97178208D01*
X142925123Y-97178208D02*
X142829885Y-97225827D01*
X142829885Y-97225827D02*
X142782266Y-97321065D01*
X142782266Y-97321065D02*
X142782266Y-97416303D01*
X142782266Y-97416303D02*
X143258456Y-97511541D01*
X142306075Y-97797256D02*
X142306075Y-97844875D01*
X142306075Y-97844875D02*
X142353694Y-97940113D01*
X142353694Y-97940113D02*
X142401313Y-97987732D01*
X150877506Y-98454819D02*
X150877506Y-99169104D01*
X150877506Y-99169104D02*
X150925125Y-99311961D01*
X150925125Y-99311961D02*
X151020363Y-99407200D01*
X151020363Y-99407200D02*
X151163220Y-99454819D01*
X151163220Y-99454819D02*
X151258458Y-99454819D01*
X149972744Y-98788152D02*
X149972744Y-99454819D01*
X150401315Y-98788152D02*
X150401315Y-99311961D01*
X150401315Y-99311961D02*
X150353696Y-99407200D01*
X150353696Y-99407200D02*
X150258458Y-99454819D01*
X150258458Y-99454819D02*
X150115601Y-99454819D01*
X150115601Y-99454819D02*
X150020363Y-99407200D01*
X150020363Y-99407200D02*
X149972744Y-99359580D01*
X149067982Y-99454819D02*
X149067982Y-98931009D01*
X149067982Y-98931009D02*
X149115601Y-98835771D01*
X149115601Y-98835771D02*
X149210839Y-98788152D01*
X149210839Y-98788152D02*
X149401315Y-98788152D01*
X149401315Y-98788152D02*
X149496553Y-98835771D01*
X149067982Y-99407200D02*
X149163220Y-99454819D01*
X149163220Y-99454819D02*
X149401315Y-99454819D01*
X149401315Y-99454819D02*
X149496553Y-99407200D01*
X149496553Y-99407200D02*
X149544172Y-99311961D01*
X149544172Y-99311961D02*
X149544172Y-99216723D01*
X149544172Y-99216723D02*
X149496553Y-99121485D01*
X149496553Y-99121485D02*
X149401315Y-99073866D01*
X149401315Y-99073866D02*
X149163220Y-99073866D01*
X149163220Y-99073866D02*
X149067982Y-99026247D01*
X148591791Y-99454819D02*
X148591791Y-98454819D01*
X148591791Y-98454819D02*
X148020363Y-99454819D01*
X148020363Y-99454819D02*
X148020363Y-98454819D01*
X146448934Y-98931009D02*
X146782267Y-98931009D01*
X146782267Y-99454819D02*
X146782267Y-98454819D01*
X146782267Y-98454819D02*
X146306077Y-98454819D01*
X145925124Y-99454819D02*
X145925124Y-98788152D01*
X145925124Y-98978628D02*
X145877505Y-98883390D01*
X145877505Y-98883390D02*
X145829886Y-98835771D01*
X145829886Y-98835771D02*
X145734648Y-98788152D01*
X145734648Y-98788152D02*
X145639410Y-98788152D01*
X145306076Y-99454819D02*
X145306076Y-98788152D01*
X145306076Y-98454819D02*
X145353695Y-98502438D01*
X145353695Y-98502438D02*
X145306076Y-98550057D01*
X145306076Y-98550057D02*
X145258457Y-98502438D01*
X145258457Y-98502438D02*
X145306076Y-98454819D01*
X145306076Y-98454819D02*
X145306076Y-98550057D01*
X144972743Y-98788152D02*
X144591791Y-98788152D01*
X144829886Y-98454819D02*
X144829886Y-99311961D01*
X144829886Y-99311961D02*
X144782267Y-99407200D01*
X144782267Y-99407200D02*
X144687029Y-99454819D01*
X144687029Y-99454819D02*
X144591791Y-99454819D01*
X144306076Y-99407200D02*
X144210838Y-99454819D01*
X144210838Y-99454819D02*
X144020362Y-99454819D01*
X144020362Y-99454819D02*
X143925124Y-99407200D01*
X143925124Y-99407200D02*
X143877505Y-99311961D01*
X143877505Y-99311961D02*
X143877505Y-99264342D01*
X143877505Y-99264342D02*
X143925124Y-99169104D01*
X143925124Y-99169104D02*
X144020362Y-99121485D01*
X144020362Y-99121485D02*
X144163219Y-99121485D01*
X144163219Y-99121485D02*
X144258457Y-99073866D01*
X144258457Y-99073866D02*
X144306076Y-98978628D01*
X144306076Y-98978628D02*
X144306076Y-98931009D01*
X144306076Y-98931009D02*
X144258457Y-98835771D01*
X144258457Y-98835771D02*
X144163219Y-98788152D01*
X144163219Y-98788152D02*
X144020362Y-98788152D01*
X144020362Y-98788152D02*
X143925124Y-98835771D01*
X143020362Y-99407200D02*
X143115600Y-99454819D01*
X143115600Y-99454819D02*
X143306076Y-99454819D01*
X143306076Y-99454819D02*
X143401314Y-99407200D01*
X143401314Y-99407200D02*
X143448933Y-99359580D01*
X143448933Y-99359580D02*
X143496552Y-99264342D01*
X143496552Y-99264342D02*
X143496552Y-98978628D01*
X143496552Y-98978628D02*
X143448933Y-98883390D01*
X143448933Y-98883390D02*
X143401314Y-98835771D01*
X143401314Y-98835771D02*
X143306076Y-98788152D01*
X143306076Y-98788152D02*
X143115600Y-98788152D01*
X143115600Y-98788152D02*
X143020362Y-98835771D01*
X142591790Y-99454819D02*
X142591790Y-98454819D01*
X142163219Y-99454819D02*
X142163219Y-98931009D01*
X142163219Y-98931009D02*
X142210838Y-98835771D01*
X142210838Y-98835771D02*
X142306076Y-98788152D01*
X142306076Y-98788152D02*
X142448933Y-98788152D01*
X142448933Y-98788152D02*
X142544171Y-98835771D01*
X142544171Y-98835771D02*
X142591790Y-98883390D01*
X141782266Y-98788152D02*
X141544171Y-99454819D01*
X141306076Y-98788152D02*
X141544171Y-99454819D01*
X141544171Y-99454819D02*
X141639409Y-99692914D01*
X141639409Y-99692914D02*
X141687028Y-99740533D01*
X141687028Y-99740533D02*
X141782266Y-99788152D01*
X140877504Y-99407200D02*
X140877504Y-99454819D01*
X140877504Y-99454819D02*
X140925123Y-99550057D01*
X140925123Y-99550057D02*
X140972742Y-99597676D01*
X150829887Y-100540953D02*
X150687030Y-100588572D01*
X150687030Y-100588572D02*
X150639411Y-100636191D01*
X150639411Y-100636191D02*
X150591792Y-100731429D01*
X150591792Y-100731429D02*
X150591792Y-100874286D01*
X150591792Y-100874286D02*
X150639411Y-100969524D01*
X150639411Y-100969524D02*
X150687030Y-101017144D01*
X150687030Y-101017144D02*
X150782268Y-101064763D01*
X150782268Y-101064763D02*
X151163220Y-101064763D01*
X151163220Y-101064763D02*
X151163220Y-100064763D01*
X151163220Y-100064763D02*
X150829887Y-100064763D01*
X150829887Y-100064763D02*
X150734649Y-100112382D01*
X150734649Y-100112382D02*
X150687030Y-100160001D01*
X150687030Y-100160001D02*
X150639411Y-100255239D01*
X150639411Y-100255239D02*
X150639411Y-100350477D01*
X150639411Y-100350477D02*
X150687030Y-100445715D01*
X150687030Y-100445715D02*
X150734649Y-100493334D01*
X150734649Y-100493334D02*
X150829887Y-100540953D01*
X150829887Y-100540953D02*
X151163220Y-100540953D01*
X149734649Y-101064763D02*
X149734649Y-100540953D01*
X149734649Y-100540953D02*
X149782268Y-100445715D01*
X149782268Y-100445715D02*
X149877506Y-100398096D01*
X149877506Y-100398096D02*
X150067982Y-100398096D01*
X150067982Y-100398096D02*
X150163220Y-100445715D01*
X149734649Y-101017144D02*
X149829887Y-101064763D01*
X149829887Y-101064763D02*
X150067982Y-101064763D01*
X150067982Y-101064763D02*
X150163220Y-101017144D01*
X150163220Y-101017144D02*
X150210839Y-100921905D01*
X150210839Y-100921905D02*
X150210839Y-100826667D01*
X150210839Y-100826667D02*
X150163220Y-100731429D01*
X150163220Y-100731429D02*
X150067982Y-100683810D01*
X150067982Y-100683810D02*
X149829887Y-100683810D01*
X149829887Y-100683810D02*
X149734649Y-100636191D01*
X149258458Y-101064763D02*
X149258458Y-100398096D01*
X149258458Y-100588572D02*
X149210839Y-100493334D01*
X149210839Y-100493334D02*
X149163220Y-100445715D01*
X149163220Y-100445715D02*
X149067982Y-100398096D01*
X149067982Y-100398096D02*
X148972744Y-100398096D01*
X148782267Y-100398096D02*
X148401315Y-100398096D01*
X148639410Y-100064763D02*
X148639410Y-100921905D01*
X148639410Y-100921905D02*
X148591791Y-101017144D01*
X148591791Y-101017144D02*
X148496553Y-101064763D01*
X148496553Y-101064763D02*
X148401315Y-101064763D01*
X147925124Y-101064763D02*
X148020362Y-101017144D01*
X148020362Y-101017144D02*
X148067981Y-100969524D01*
X148067981Y-100969524D02*
X148115600Y-100874286D01*
X148115600Y-100874286D02*
X148115600Y-100588572D01*
X148115600Y-100588572D02*
X148067981Y-100493334D01*
X148067981Y-100493334D02*
X148020362Y-100445715D01*
X148020362Y-100445715D02*
X147925124Y-100398096D01*
X147925124Y-100398096D02*
X147782267Y-100398096D01*
X147782267Y-100398096D02*
X147687029Y-100445715D01*
X147687029Y-100445715D02*
X147639410Y-100493334D01*
X147639410Y-100493334D02*
X147591791Y-100588572D01*
X147591791Y-100588572D02*
X147591791Y-100874286D01*
X147591791Y-100874286D02*
X147639410Y-100969524D01*
X147639410Y-100969524D02*
X147687029Y-101017144D01*
X147687029Y-101017144D02*
X147782267Y-101064763D01*
X147782267Y-101064763D02*
X147925124Y-101064763D01*
X147020362Y-101064763D02*
X147115600Y-101017144D01*
X147115600Y-101017144D02*
X147163219Y-100921905D01*
X147163219Y-100921905D02*
X147163219Y-100064763D01*
X145544171Y-100540953D02*
X145401314Y-100588572D01*
X145401314Y-100588572D02*
X145353695Y-100636191D01*
X145353695Y-100636191D02*
X145306076Y-100731429D01*
X145306076Y-100731429D02*
X145306076Y-100874286D01*
X145306076Y-100874286D02*
X145353695Y-100969524D01*
X145353695Y-100969524D02*
X145401314Y-101017144D01*
X145401314Y-101017144D02*
X145496552Y-101064763D01*
X145496552Y-101064763D02*
X145877504Y-101064763D01*
X145877504Y-101064763D02*
X145877504Y-100064763D01*
X145877504Y-100064763D02*
X145544171Y-100064763D01*
X145544171Y-100064763D02*
X145448933Y-100112382D01*
X145448933Y-100112382D02*
X145401314Y-100160001D01*
X145401314Y-100160001D02*
X145353695Y-100255239D01*
X145353695Y-100255239D02*
X145353695Y-100350477D01*
X145353695Y-100350477D02*
X145401314Y-100445715D01*
X145401314Y-100445715D02*
X145448933Y-100493334D01*
X145448933Y-100493334D02*
X145544171Y-100540953D01*
X145544171Y-100540953D02*
X145877504Y-100540953D01*
X144448933Y-101064763D02*
X144448933Y-100540953D01*
X144448933Y-100540953D02*
X144496552Y-100445715D01*
X144496552Y-100445715D02*
X144591790Y-100398096D01*
X144591790Y-100398096D02*
X144782266Y-100398096D01*
X144782266Y-100398096D02*
X144877504Y-100445715D01*
X144448933Y-101017144D02*
X144544171Y-101064763D01*
X144544171Y-101064763D02*
X144782266Y-101064763D01*
X144782266Y-101064763D02*
X144877504Y-101017144D01*
X144877504Y-101017144D02*
X144925123Y-100921905D01*
X144925123Y-100921905D02*
X144925123Y-100826667D01*
X144925123Y-100826667D02*
X144877504Y-100731429D01*
X144877504Y-100731429D02*
X144782266Y-100683810D01*
X144782266Y-100683810D02*
X144544171Y-100683810D01*
X144544171Y-100683810D02*
X144448933Y-100636191D01*
X143972742Y-101064763D02*
X143972742Y-100398096D01*
X143972742Y-100588572D02*
X143925123Y-100493334D01*
X143925123Y-100493334D02*
X143877504Y-100445715D01*
X143877504Y-100445715D02*
X143782266Y-100398096D01*
X143782266Y-100398096D02*
X143687028Y-100398096D01*
X142925123Y-101017144D02*
X143020361Y-101064763D01*
X143020361Y-101064763D02*
X143210837Y-101064763D01*
X143210837Y-101064763D02*
X143306075Y-101017144D01*
X143306075Y-101017144D02*
X143353694Y-100969524D01*
X143353694Y-100969524D02*
X143401313Y-100874286D01*
X143401313Y-100874286D02*
X143401313Y-100588572D01*
X143401313Y-100588572D02*
X143353694Y-100493334D01*
X143353694Y-100493334D02*
X143306075Y-100445715D01*
X143306075Y-100445715D02*
X143210837Y-100398096D01*
X143210837Y-100398096D02*
X143020361Y-100398096D01*
X143020361Y-100398096D02*
X142925123Y-100445715D01*
X142353694Y-101064763D02*
X142448932Y-101017144D01*
X142448932Y-101017144D02*
X142496551Y-100969524D01*
X142496551Y-100969524D02*
X142544170Y-100874286D01*
X142544170Y-100874286D02*
X142544170Y-100588572D01*
X142544170Y-100588572D02*
X142496551Y-100493334D01*
X142496551Y-100493334D02*
X142448932Y-100445715D01*
X142448932Y-100445715D02*
X142353694Y-100398096D01*
X142353694Y-100398096D02*
X142210837Y-100398096D01*
X142210837Y-100398096D02*
X142115599Y-100445715D01*
X142115599Y-100445715D02*
X142067980Y-100493334D01*
X142067980Y-100493334D02*
X142020361Y-100588572D01*
X142020361Y-100588572D02*
X142020361Y-100874286D01*
X142020361Y-100874286D02*
X142067980Y-100969524D01*
X142067980Y-100969524D02*
X142115599Y-101017144D01*
X142115599Y-101017144D02*
X142210837Y-101064763D01*
X142210837Y-101064763D02*
X142353694Y-101064763D01*
X141734646Y-100398096D02*
X141353694Y-100398096D01*
X141591789Y-100064763D02*
X141591789Y-100921905D01*
X141591789Y-100921905D02*
X141544170Y-101017144D01*
X141544170Y-101017144D02*
X141448932Y-101064763D01*
X141448932Y-101064763D02*
X141353694Y-101064763D01*
X139972741Y-101445715D02*
X140020360Y-101398096D01*
X140020360Y-101398096D02*
X140115598Y-101255239D01*
X140115598Y-101255239D02*
X140163217Y-101160001D01*
X140163217Y-101160001D02*
X140210836Y-101017144D01*
X140210836Y-101017144D02*
X140258455Y-100779048D01*
X140258455Y-100779048D02*
X140258455Y-100588572D01*
X140258455Y-100588572D02*
X140210836Y-100350477D01*
X140210836Y-100350477D02*
X140163217Y-100207620D01*
X140163217Y-100207620D02*
X140115598Y-100112382D01*
X140115598Y-100112382D02*
X140020360Y-99969524D01*
X140020360Y-99969524D02*
X139972741Y-99921905D01*
X139639407Y-101017144D02*
X139496550Y-101064763D01*
X139496550Y-101064763D02*
X139258455Y-101064763D01*
X139258455Y-101064763D02*
X139163217Y-101017144D01*
X139163217Y-101017144D02*
X139115598Y-100969524D01*
X139115598Y-100969524D02*
X139067979Y-100874286D01*
X139067979Y-100874286D02*
X139067979Y-100779048D01*
X139067979Y-100779048D02*
X139115598Y-100683810D01*
X139115598Y-100683810D02*
X139163217Y-100636191D01*
X139163217Y-100636191D02*
X139258455Y-100588572D01*
X139258455Y-100588572D02*
X139448931Y-100540953D01*
X139448931Y-100540953D02*
X139544169Y-100493334D01*
X139544169Y-100493334D02*
X139591788Y-100445715D01*
X139591788Y-100445715D02*
X139639407Y-100350477D01*
X139639407Y-100350477D02*
X139639407Y-100255239D01*
X139639407Y-100255239D02*
X139591788Y-100160001D01*
X139591788Y-100160001D02*
X139544169Y-100112382D01*
X139544169Y-100112382D02*
X139448931Y-100064763D01*
X139448931Y-100064763D02*
X139210836Y-100064763D01*
X139210836Y-100064763D02*
X139067979Y-100112382D01*
X138210836Y-101017144D02*
X138306074Y-101064763D01*
X138306074Y-101064763D02*
X138496550Y-101064763D01*
X138496550Y-101064763D02*
X138591788Y-101017144D01*
X138591788Y-101017144D02*
X138639407Y-100969524D01*
X138639407Y-100969524D02*
X138687026Y-100874286D01*
X138687026Y-100874286D02*
X138687026Y-100588572D01*
X138687026Y-100588572D02*
X138639407Y-100493334D01*
X138639407Y-100493334D02*
X138591788Y-100445715D01*
X138591788Y-100445715D02*
X138496550Y-100398096D01*
X138496550Y-100398096D02*
X138306074Y-100398096D01*
X138306074Y-100398096D02*
X138210836Y-100445715D01*
X137782264Y-101064763D02*
X137782264Y-100398096D01*
X137782264Y-100064763D02*
X137829883Y-100112382D01*
X137829883Y-100112382D02*
X137782264Y-100160001D01*
X137782264Y-100160001D02*
X137734645Y-100112382D01*
X137734645Y-100112382D02*
X137782264Y-100064763D01*
X137782264Y-100064763D02*
X137782264Y-100160001D01*
X137306074Y-100398096D02*
X137306074Y-101064763D01*
X137306074Y-100493334D02*
X137258455Y-100445715D01*
X137258455Y-100445715D02*
X137163217Y-100398096D01*
X137163217Y-100398096D02*
X137020360Y-100398096D01*
X137020360Y-100398096D02*
X136925122Y-100445715D01*
X136925122Y-100445715D02*
X136877503Y-100540953D01*
X136877503Y-100540953D02*
X136877503Y-101064763D01*
X136544169Y-100398096D02*
X136163217Y-100398096D01*
X136401312Y-100064763D02*
X136401312Y-100921905D01*
X136401312Y-100921905D02*
X136353693Y-101017144D01*
X136353693Y-101017144D02*
X136258455Y-101064763D01*
X136258455Y-101064763D02*
X136163217Y-101064763D01*
X135829883Y-101064763D02*
X135829883Y-100398096D01*
X135829883Y-100064763D02*
X135877502Y-100112382D01*
X135877502Y-100112382D02*
X135829883Y-100160001D01*
X135829883Y-100160001D02*
X135782264Y-100112382D01*
X135782264Y-100112382D02*
X135829883Y-100064763D01*
X135829883Y-100064763D02*
X135829883Y-100160001D01*
X135210836Y-101064763D02*
X135306074Y-101017144D01*
X135306074Y-101017144D02*
X135353693Y-100921905D01*
X135353693Y-100921905D02*
X135353693Y-100064763D01*
X134687026Y-101064763D02*
X134782264Y-101017144D01*
X134782264Y-101017144D02*
X134829883Y-100921905D01*
X134829883Y-100921905D02*
X134829883Y-100064763D01*
X133877502Y-101064763D02*
X133877502Y-100540953D01*
X133877502Y-100540953D02*
X133925121Y-100445715D01*
X133925121Y-100445715D02*
X134020359Y-100398096D01*
X134020359Y-100398096D02*
X134210835Y-100398096D01*
X134210835Y-100398096D02*
X134306073Y-100445715D01*
X133877502Y-101017144D02*
X133972740Y-101064763D01*
X133972740Y-101064763D02*
X134210835Y-101064763D01*
X134210835Y-101064763D02*
X134306073Y-101017144D01*
X134306073Y-101017144D02*
X134353692Y-100921905D01*
X134353692Y-100921905D02*
X134353692Y-100826667D01*
X134353692Y-100826667D02*
X134306073Y-100731429D01*
X134306073Y-100731429D02*
X134210835Y-100683810D01*
X134210835Y-100683810D02*
X133972740Y-100683810D01*
X133972740Y-100683810D02*
X133877502Y-100636191D01*
X133544168Y-100398096D02*
X133163216Y-100398096D01*
X133401311Y-100064763D02*
X133401311Y-100921905D01*
X133401311Y-100921905D02*
X133353692Y-101017144D01*
X133353692Y-101017144D02*
X133258454Y-101064763D01*
X133258454Y-101064763D02*
X133163216Y-101064763D01*
X132687025Y-101064763D02*
X132782263Y-101017144D01*
X132782263Y-101017144D02*
X132829882Y-100969524D01*
X132829882Y-100969524D02*
X132877501Y-100874286D01*
X132877501Y-100874286D02*
X132877501Y-100588572D01*
X132877501Y-100588572D02*
X132829882Y-100493334D01*
X132829882Y-100493334D02*
X132782263Y-100445715D01*
X132782263Y-100445715D02*
X132687025Y-100398096D01*
X132687025Y-100398096D02*
X132544168Y-100398096D01*
X132544168Y-100398096D02*
X132448930Y-100445715D01*
X132448930Y-100445715D02*
X132401311Y-100493334D01*
X132401311Y-100493334D02*
X132353692Y-100588572D01*
X132353692Y-100588572D02*
X132353692Y-100874286D01*
X132353692Y-100874286D02*
X132401311Y-100969524D01*
X132401311Y-100969524D02*
X132448930Y-101017144D01*
X132448930Y-101017144D02*
X132544168Y-101064763D01*
X132544168Y-101064763D02*
X132687025Y-101064763D01*
X131925120Y-101064763D02*
X131925120Y-100398096D01*
X131925120Y-100588572D02*
X131877501Y-100493334D01*
X131877501Y-100493334D02*
X131829882Y-100445715D01*
X131829882Y-100445715D02*
X131734644Y-100398096D01*
X131734644Y-100398096D02*
X131639406Y-100398096D01*
X131401310Y-101445715D02*
X131353691Y-101398096D01*
X131353691Y-101398096D02*
X131258453Y-101255239D01*
X131258453Y-101255239D02*
X131210834Y-101160001D01*
X131210834Y-101160001D02*
X131163215Y-101017144D01*
X131163215Y-101017144D02*
X131115596Y-100779048D01*
X131115596Y-100779048D02*
X131115596Y-100588572D01*
X131115596Y-100588572D02*
X131163215Y-100350477D01*
X131163215Y-100350477D02*
X131210834Y-100207620D01*
X131210834Y-100207620D02*
X131258453Y-100112382D01*
X131258453Y-100112382D02*
X131353691Y-99969524D01*
X131353691Y-99969524D02*
X131401310Y-99921905D01*
M02*
